<?xml version="1.0" encoding="UTF-8"?>
<svg viewBox="0 0 163 88" version="1.1" xmlns="http://www.w3.org/2000/svg" xmlns:xlink="http://www.w3.org/1999/xlink">
    <title>Logo</title>
    <g id="Page-1" stroke="none" stroke-width="1" fill="none" fill-rule="evenodd">
        <g id="Artboard" transform="translate(-87, -119)" fill-rule="nonzero">
            <path d="M182.445801,119 C188.444253,119 193.627081,119.966665 197.994286,121.899996 C199.814667,122.410443 201.515149,123.6581 203.095215,125.643311 L219.032715,150.97876 L234.970215,125.643311 C237.09668,122.971598 239.441243,121.635742 242.003906,121.635742 C243.803223,121.635742 245.452596,122.358195 246.952026,123.803101 C248.451457,125.248006 249.201172,126.761068 249.201172,128.342285 C249.201172,130.46875 248.410563,132.486165 246.829346,134.394531 L223.356445,163.015742 L246.829346,191.626953 C248.410563,193.535319 249.201172,195.552734 249.201172,197.679199 C249.201172,199.260417 248.451457,200.773478 246.952026,202.218384 C245.452596,203.663289 243.803223,204.385742 242.003906,204.385742 C239.441243,204.385742 237.09668,203.049886 234.970215,200.378174 L219.032715,174.206299 L203.095215,200.378174 C200.96875,203.049886 198.624186,204.385742 196.061523,204.385742 C194.262207,204.385742 192.612834,203.663289 191.113403,202.218384 C189.613973,200.773478 188.864258,199.260417 188.864258,197.679199 C188.864258,195.552734 189.627604,193.535319 191.154297,191.626953 L214.627197,163.015742 L197.426264,142.042699 L197.393,142.001 L193.689482,137.485122 C190.629717,134.294322 187.261624,132.331299 182.445801,132.331299 C174.15804,132.331299 167.914958,135.520996 163.716553,141.900391 C159.518148,148.279785 157.418945,156.213135 157.418945,165.700439 L157.418945,195.879883 C157.418945,198.333496 156.723755,200.364543 155.333374,201.973022 C153.942993,203.581502 152.130046,204.385742 149.894531,204.385742 L149.8125,204.385742 C147.576986,204.385742 145.764038,203.608765 144.373657,202.05481 C142.983276,200.500854 142.288086,198.551595 142.288086,196.207031 L142.288086,192.85376 C141.034017,196.452393 138.089681,199.546672 133.455078,202.136597 C128.820475,204.726522 123.885986,206.021484 118.651611,206.021484 C97.5505371,206.021484 87,195.252848 87,173.715576 L87,128.814453 C87,126.469889 87.6951904,124.52063 89.0855713,122.966675 C90.4759521,121.41272 92.2888997,120.635742 94.5244141,120.635742 C96.7599284,120.635742 98.572876,121.41272 99.9632568,122.966675 C101.353638,124.52063 102.048828,126.469889 102.048828,128.814453 L102.048828,170.362305 C102.048828,178.268392 103.289266,183.966227 105.770142,187.455811 C108.251017,190.945394 112.54484,192.690186 118.651611,192.690186 C126.012451,192.690186 131.792074,189.704956 135.990479,183.734497 C140.188883,177.764038 142.288086,169.953369 142.288086,160.30249 L142.288086,128.814453 C142.288086,126.469889 142.983276,124.52063 144.373657,122.966675 C145.764038,121.41272 147.576986,120.635742 149.8125,120.635742 L149.894531,120.635742 C152.130046,120.635742 153.942993,121.439982 155.333374,123.048462 C156.723755,124.656942 157.418945,126.687988 157.418945,129.141602 L157.418945,132.903809 C159.436361,129.305176 162.735107,126.088216 167.315186,123.25293 C171.895264,120.417643 176.938802,119 182.445801,119 Z" id="Logo"></path>
        </g>
    </g>
</svg>
