<svg xmlns="http://www.w3.org/2000/svg" viewBox="0 0 163 88"><path fill="none" fill-rule="nonzero" d="M95.446 0q8.997 0 15.548 2.9 2.73.765 5.101 3.743l15.938 25.336L147.97 6.643q3.19-4.007 7.034-4.007 2.7 0 4.948 2.167 2.25 2.167 2.25 4.54 0 3.189-2.373 6.052l-23.473 28.62 23.473 28.612q2.373 2.863 2.372 6.052 0 2.371-2.249 4.54-2.25 2.167-4.948 2.167-3.844 0-7.034-4.008l-15.937-26.172-15.938 26.172q-3.189 4.008-7.033 4.008-2.7 0-4.949-2.168-2.249-2.167-2.249-4.539 0-3.19 2.29-6.052l23.473-28.611-17.2-20.973-.034-.042-3.704-4.516c-3.06-3.19-6.427-5.154-11.243-5.154q-12.432 0-18.73 9.57-6.297 9.568-6.297 23.8V76.88q0 3.68-2.086 6.093t-5.438 2.413h-.083q-3.353 0-5.438-2.331t-2.086-5.848v-3.353q-1.88 5.398-8.833 9.283-6.952 3.885-14.803 3.884Q0 87.021 0 54.716V9.814q0-3.516 2.086-5.847t5.438-2.331 5.44 2.33q2.085 2.332 2.085 5.848v41.548q0 11.859 3.721 17.094 3.722 5.234 12.882 5.234 11.04 0 17.338-8.956 6.298-8.954 6.298-23.432V9.814q0-3.516 2.086-5.847t5.438-2.331h.083q3.353 0 5.438 2.412t2.086 6.094v3.762q3.026-5.398 9.896-9.651T95.445 0"/></svg>